<svg width="70" height="70" viewBox="0 0 70 70" fill="none" xmlns="http://www.w3.org/2000/svg">
<path d="M10.5 24.5C10.4867 21.5336 11.7285 18.6996 13.9191 16.6992C16.1097 14.6988 19.0445 13.718 21.9976 14C23.3894 10.5125 26.1238 7.73051 29.5867 6.27891C33.0496 4.82691 36.9504 4.82691 40.4137 6.27891C43.8766 7.73051 46.611 10.5125 48.0028 14C51.4809 13.5918 54.9337 14.9445 57.2087 17.607C59.4837 20.2691 60.2821 23.8902 59.3368 27.2621C58.3919 30.6344 55.8278 33.3129 52.5005 34.4051V38.5H43.9778L45.5005 26.46C45.5755 25.8346 45.3114 25.217 44.8075 24.8393C44.3032 24.4616 43.6364 24.3815 43.0575 24.6292C42.4782 24.8768 42.0755 25.4147 42.0005 26.0397L40.4607 38.4997H36.7505V20.9997C36.7505 20.3743 36.4169 19.7966 35.8755 19.4841C35.3341 19.1716 34.6669 19.1716 34.1255 19.4841C33.5841 19.7966 33.2505 20.3743 33.2505 20.9997V38.4997H29.5403L28.0005 26.0397C27.9255 25.4147 27.5228 24.8768 26.9435 24.6292C26.3646 24.3815 25.6978 24.4616 25.1935 24.8393C24.6896 25.217 24.4255 25.8346 24.5005 26.46L26.0232 38.5H17.5005V34.4051C15.4525 33.6809 13.6794 32.3395 12.4259 30.5656C11.172 28.7914 10.4993 26.6722 10.5005 24.5H10.5ZM17.5 42V49C17.5019 49.6067 17.8176 50.1688 18.3344 50.4863C18.8516 50.8035 19.4957 50.8305 20.0375 50.5574L22.5574 49.2972V49.2976C24.9512 48.1015 27.7433 47.9929 30.2226 48.9999C33.2992 50.2065 36.7183 50.2065 39.7949 48.9999C42.2637 48.0015 45.0418 48.1097 47.425 49.2976L49.9625 50.5749C50.2078 50.6936 50.4773 50.7538 50.75 50.7499C51.214 50.7499 51.6594 50.5655 51.9875 50.2374C52.3156 49.9093 52.5 49.464 52.5 48.9999V41.9999L17.5 42Z" fill="#F09E3E"/>
</svg>
